<?xml version="1.0" encoding="utf-8"?>
<!-- Generator: Adobe Illustrator 19.0.0, SVG Export Plug-In . SVG Version: 6.00 Build 0)  -->
<svg version="1.1" id="Symbol" xmlns="http://www.w3.org/2000/svg" xmlns:xlink="http://www.w3.org/1999/xlink" x="0px" y="0px"
	 viewBox="-8.5 -38.5 512 512" enable-background="new -8.5 -38.5 512 512" xml:space="preserve">
<g id="Symbol">
	<g>
		<g>
			<path d="M50.799,301.544h20.168c20.937,0,34.958,15.654,34.958,36.302c0,20.36-14.406,36.111-35.054,36.111H50.799V301.544z
				 M64.917,361.664h2.304c17.383,0,24.106-9.604,24.106-23.914c0-15.75-8.067-23.913-24.106-23.913h-2.304V361.664z"/>
			<path d="M127.922,373.957h-14.118v-72.413h14.118V373.957z"/>
			<path d="M153.278,313.837v15.942h20.456v12.293h-20.456v31.885H139.16v-72.413h35.918v12.293H153.278z"/>
			<path d="M198.707,313.837v15.942h20.456v12.293h-20.456v31.885h-14.118v-72.413h35.918v12.293H198.707z"/>
			<path d="M244.136,373.957h-14.118v-72.413h14.118V373.957z"/>
			<path d="M303.776,320.752c-3.937-4.802-9.892-7.683-15.942-7.683c-13.541,0-21.32,12.485-21.32,24.969
				c0,12.198,8.067,24.394,21.224,24.394c6.051,0,12.101-3.169,16.038-7.683v16.807c-5.282,2.497-10.564,4.322-16.422,4.322
				c-20.36,0-35.438-17.575-35.438-37.552c0-20.552,14.501-38.703,35.726-38.703c5.667,0,11.237,1.536,16.134,4.225V320.752z"/>
			<path d="M313.672,301.544h14.117v40.528c0,8.932,0.768,21.513,12.773,21.513c12.005,0,12.774-12.581,12.774-21.513v-40.528
				h14.117v43.313c0,17.671-7.491,31.02-26.891,31.02c-19.399,0-26.89-13.349-26.89-31.02V301.544z"/>
			<path d="M392.523,361.664h19.976v12.293h-34.093v-72.413h14.117V361.664z"/>
			<path d="M438.624,373.957h-14.119v-60.12h-14.597v-12.293h43.313v12.293h-14.597V373.957z"/>
			<path d="M37.93,464.138H23.812v-72.413h19.208c15.174,0,25.066,6.05,25.066,22.473c0,15.366-8.356,22.857-23.145,22.857h-7.01
				V464.138z M37.93,425.338h2.881c8.355,0,12.869-1.825,12.869-11.237c0-9.316-5.378-10.66-13.253-10.66H37.93V425.338z"/>
			<path d="M107.848,466.059c-22.089,0-35.822-16.903-35.822-38.223c0-21.513,14.214-38.032,35.822-38.032
				s35.822,16.518,35.822,38.032C143.671,449.156,129.938,466.059,107.848,466.059z M107.848,403.729
				c-13.349,0-21.224,11.813-21.224,23.529c0,11.14,5.57,24.874,21.224,24.874s21.224-13.734,21.224-24.874
				C129.073,415.542,121.198,403.729,107.848,403.729z"/>
			<path d="M151.551,391.725h20.168c20.937,0,34.958,15.654,34.958,36.302c0,20.36-14.406,36.111-35.054,36.111h-20.072V391.725z
				 M165.669,451.845h2.304c17.383,0,24.106-9.604,24.106-23.914c0-15.75-8.067-23.913-24.106-23.913h-2.304V451.845z"/>
			<path d="M262.959,410.932c-3.937-4.802-9.892-7.683-15.943-7.683c-13.541,0-21.32,12.485-21.32,24.969
				c0,12.198,8.067,24.394,21.224,24.394c6.05,0,12.101-3.169,16.038-7.683v16.807c-5.282,2.497-10.565,4.322-16.423,4.322
				c-20.36,0-35.438-17.575-35.438-37.552c0-20.552,14.502-38.703,35.726-38.703c5.666,0,11.236,1.536,16.134,4.225V410.932z"/>
			<path d="M288.028,448.867l-5.954,15.27h-14.887l28.236-74.334h10.948l27.467,74.334H318.76l-5.57-15.27H288.028z
				 M300.226,411.029h-0.193l-7.971,26.314h17.191L300.226,411.029z"/>
			<path d="M373.219,407.667c-2.689-3.649-6.146-5.954-10.852-5.954c-4.514,0-8.836,3.457-8.836,8.163
				c0,12.196,28.715,7.106,28.715,31.405c0,14.501-9.027,24.778-23.818,24.778c-9.987,0-17.287-5.763-22.28-14.117l9.124-8.932
				c1.92,5.57,7.01,10.565,13.061,10.565c5.762,0,9.316-4.898,9.316-10.468c0-7.491-6.915-9.604-12.581-11.813
				c-9.316-3.842-16.135-8.547-16.135-19.784c0-12.005,8.932-21.705,21.129-21.705c6.435,0,15.367,3.169,19.784,8.067
				L373.219,407.667z"/>
			<path d="M414.133,464.138h-14.119v-60.12h-14.597v-12.293h43.313v12.293h-14.597V464.138z"/>
			<path d="M468.973,407.667c-2.689-3.649-6.146-5.954-10.852-5.954c-4.514,0-8.836,3.457-8.836,8.163
				c0,12.196,28.715,7.106,28.715,31.405c0,14.501-9.027,24.778-23.818,24.778c-9.987,0-17.287-5.763-22.28-14.117l9.124-8.932
				c1.92,5.57,7.01,10.565,13.061,10.565c5.762,0,9.316-4.898,9.316-10.468c0-7.491-6.915-9.604-12.581-11.813
				c-9.316-3.842-16.135-8.547-16.135-19.784c0-12.005,8.932-21.705,21.129-21.705c6.435,0,15.367,3.169,19.784,8.067
				L468.973,407.667z"/>
		</g>
		<g>
			<g id="Hand_7_">
				<path d="M351.805,113.677l12.47-14.309l9.48,1.57l6.151-9.46l42.28,1.764c0,0,1.067,5.417-5.299,12.221
					c-6.367,6.805-14.967,11.275-14.967,11.275l-16.386-3.369l-1.373,8.287L351.805,113.677z"/>
				<path d="M325.439,119.789l27.041-48.573l8.503,4.028l3.59-21.674c0,0,8.604-0.539,14.76-6.069s6.574-12.01,10.29-14.67
					c3.715-2.659,7.642-6.594,14.549-4.794c6.906,1.799,7.442,6.473,4.474,12.53c-2.968,6.058-5.933,16.046-5.933,16.046
					l-22.921,19.751l-4.135,13.101l-20.26,2.538c0,0-9.035,31.806-11.491,31.238C338.086,121.894,325.439,119.789,325.439,119.789z"
					/>
				<path d="M281.223,146.704c-22.623,21.637-35.378,50.284-35.378,50.284l25.045,82.089l-6.46,19.233l-9.559,2.347L219.2,226.064
					l-82.316-55.791l-99.663,32.763l-15.627-12.413l41.686-61.865l81.659-30.355l23.575,3.905
					c14.864,14.479,26.479,23.517,51.591,32.374c47.214,7.891,91.236-16.835,100.794-65.733l17.521-35.431
					c0,0,1.056-6.375,5.51-13.496c4.454-7.122,11.251-8.615,16.246-7.133c4.994,1.482,8.084,10.509,5.01,17.204
					c-3.074,6.695-50.146,92.655-50.146,92.655"/>
			</g>
			<path d="M353.2,131.496c-42.484-7.038-82.629,21.697-89.667,64.181s21.697,82.629,64.181,89.667
				c42.484,7.038,82.629-21.697,89.667-64.181C424.419,178.679,395.684,138.533,353.2,131.496z M311.515,143.214
				c7.669-3.475,17.969-5.654,17.969-5.654l7.243,37.538c0,0-6.526,1.58-9.856,2.91c-7.673,3.065-8.394,4.06-8.394,4.06
				l-21.101-31.657C297.376,150.41,300.352,148.272,311.515,143.214z M311.107,276.089c0,0-3.363-1.456-13.436-8.436
				c-6.92-4.795-14.079-12.515-14.079-12.515l28.49-25.493c0,0,4.707,4.789,7.558,6.963c6.571,5.01,7.795,5.118,7.795,5.118
				L311.107,276.089z M336.649,231.409c-12.696-2.103-21.284-14.101-19.181-26.797c2.103-12.696,14.101-21.284,26.797-19.181
				c12.696,2.103,21.284,14.101,19.181,26.797C361.342,224.924,349.345,233.512,336.649,231.409z M371.289,222.856
				c0,0,1.812-6.465,2.28-10.02c1.077-8.192,0.562-9.308,0.562-9.308l37.932-2.932c0,0,0.41,3.641-0.634,15.852
				c-0.717,8.389-3.852,18.439-3.852,18.439L371.289,222.856z"/>
			<path d="M207.475-20.474c-39.546,17.044-57.788,62.92-40.744,102.466s62.92,57.788,102.466,40.744s57.788-62.92,40.744-102.466
				S247.021-37.518,207.475-20.474z M178.739,11.918c4.573-7.069,12.061-14.47,12.061-14.47l26.385,27.665
				c0,0-4.637,4.857-6.719,7.775c-4.799,6.727-4.868,7.953-4.868,7.953l-34.865-15.227
				C170.735,25.615,172.083,22.208,178.739,11.918z M250.223,123.927c0,0-3.616,0.593-15.864,0.166
				c-8.414-0.294-18.61-2.918-18.61-2.918l10.188-36.848c0,0,6.548,1.484,10.122,1.772c8.236,0.663,9.324,0.092,9.324,0.092
				L250.223,123.927z M247.559,72.531c-11.818,5.094-25.528-0.358-30.622-12.176c-5.094-11.818,0.358-25.528,12.176-30.622
				s25.528,0.358,30.622,12.176C264.829,53.727,259.378,67.437,247.559,72.531z M272.079,46.61c0,0-1.97-6.419-3.498-9.662
				c-3.522-7.475-4.559-8.134-4.559-8.134l30.328-22.971c0,0,2.313,2.842,8.036,13.679c3.931,7.445,6.727,17.595,6.727,17.595
				L272.079,46.61z"/>
		</g>
	</g>
	<g>
		<g>
			<path fill="#FFFFFF" d="M50.799,301.544h20.168c20.937,0,34.958,15.654,34.958,36.302c0,20.36-14.406,36.111-35.054,36.111
				H50.799V301.544z M64.917,361.664h2.304c17.383,0,24.106-9.604,24.106-23.914c0-15.75-8.067-23.913-24.106-23.913h-2.304V361.664
				z"/>
			<path fill="#FFFFFF" d="M127.922,373.957h-14.118v-72.413h14.118V373.957z"/>
			<path fill="#FFFFFF" d="M153.278,313.837v15.942h20.456v12.293h-20.456v31.885H139.16v-72.413h35.918v12.293H153.278z"/>
			<path fill="#FFFFFF" d="M198.707,313.837v15.942h20.456v12.293h-20.456v31.885h-14.118v-72.413h35.918v12.293H198.707z"/>
			<path fill="#FFFFFF" d="M244.136,373.957h-14.118v-72.413h14.118V373.957z"/>
			<path fill="#FFFFFF" d="M303.776,320.752c-3.937-4.802-9.892-7.683-15.942-7.683c-13.541,0-21.32,12.485-21.32,24.969
				c0,12.198,8.067,24.394,21.224,24.394c6.051,0,12.101-3.169,16.038-7.683v16.807c-5.282,2.497-10.564,4.322-16.422,4.322
				c-20.36,0-35.438-17.575-35.438-37.552c0-20.552,14.501-38.703,35.726-38.703c5.667,0,11.237,1.536,16.134,4.225V320.752z"/>
			<path fill="#FFFFFF" d="M313.672,301.544h14.117v40.528c0,8.932,0.768,21.513,12.773,21.513
				c12.005,0,12.774-12.581,12.774-21.513v-40.528h14.117v43.313c0,17.671-7.491,31.02-26.891,31.02
				c-19.399,0-26.89-13.349-26.89-31.02V301.544z"/>
			<path fill="#FFFFFF" d="M392.523,361.664h19.976v12.293h-34.093v-72.413h14.117V361.664z"/>
			<path fill="#FFFFFF" d="M438.624,373.957h-14.119v-60.12h-14.597v-12.293h43.313v12.293h-14.597V373.957z"/>
			<path fill="#FFFFFF" d="M37.93,464.138H23.812v-72.413h19.208c15.174,0,25.066,6.05,25.066,22.473
				c0,15.366-8.356,22.857-23.145,22.857h-7.01V464.138z M37.93,425.338h2.881c8.355,0,12.869-1.825,12.869-11.237
				c0-9.316-5.378-10.66-13.253-10.66H37.93V425.338z"/>
			<path fill="#FFFFFF" d="M107.848,466.059c-22.089,0-35.822-16.903-35.822-38.223c0-21.513,14.214-38.032,35.822-38.032
				s35.822,16.518,35.822,38.032C143.671,449.156,129.938,466.059,107.848,466.059z M107.848,403.729
				c-13.349,0-21.224,11.813-21.224,23.529c0,11.14,5.57,24.874,21.224,24.874s21.224-13.734,21.224-24.874
				C129.073,415.542,121.198,403.729,107.848,403.729z"/>
			<path fill="#FFFFFF" d="M151.551,391.725h20.168c20.937,0,34.958,15.654,34.958,36.302c0,20.36-14.406,36.111-35.054,36.111
				h-20.072V391.725z M165.669,451.845h2.304c17.383,0,24.106-9.604,24.106-23.914c0-15.75-8.067-23.913-24.106-23.913h-2.304
				V451.845z"/>
			<path fill="#FFFFFF" d="M262.959,410.932c-3.937-4.802-9.892-7.683-15.943-7.683c-13.541,0-21.32,12.485-21.32,24.969
				c0,12.198,8.067,24.394,21.224,24.394c6.05,0,12.101-3.169,16.038-7.683v16.807c-5.282,2.497-10.565,4.322-16.423,4.322
				c-20.36,0-35.438-17.575-35.438-37.552c0-20.552,14.502-38.703,35.726-38.703c5.666,0,11.236,1.536,16.134,4.225V410.932z"/>
			<path fill="#FFFFFF" d="M288.028,448.867l-5.954,15.27h-14.887l28.236-74.334h10.948l27.467,74.334H318.76l-5.57-15.27H288.028z
				 M300.226,411.029h-0.193l-7.971,26.314h17.191L300.226,411.029z"/>
			<path fill="#FFFFFF" d="M373.219,407.667c-2.689-3.649-6.146-5.954-10.852-5.954c-4.514,0-8.836,3.457-8.836,8.163
				c0,12.196,28.715,7.106,28.715,31.405c0,14.501-9.027,24.778-23.818,24.778c-9.987,0-17.287-5.763-22.28-14.117l9.124-8.932
				c1.92,5.57,7.01,10.565,13.061,10.565c5.762,0,9.316-4.898,9.316-10.468c0-7.491-6.915-9.604-12.581-11.813
				c-9.316-3.842-16.135-8.547-16.135-19.784c0-12.005,8.932-21.705,21.129-21.705c6.435,0,15.367,3.169,19.784,8.067
				L373.219,407.667z"/>
			<path fill="#FFFFFF" d="M414.133,464.138h-14.119v-60.12h-14.597v-12.293h43.313v12.293h-14.597V464.138z"/>
			<path fill="#FFFFFF" d="M468.973,407.667c-2.689-3.649-6.146-5.954-10.852-5.954c-4.514,0-8.836,3.457-8.836,8.163
				c0,12.196,28.715,7.106,28.715,31.405c0,14.501-9.027,24.778-23.818,24.778c-9.987,0-17.287-5.763-22.28-14.117l9.124-8.932
				c1.92,5.57,7.01,10.565,13.061,10.565c5.762,0,9.316-4.898,9.316-10.468c0-7.491-6.915-9.604-12.581-11.813
				c-9.316-3.842-16.135-8.547-16.135-19.784c0-12.005,8.932-21.705,21.129-21.705c6.435,0,15.367,3.169,19.784,8.067
				L468.973,407.667z"/>
		</g>
		<g>
			<g id="Hand_6_">
				<path fill="#FFFFFF" d="M351.805,113.677l12.47-14.309l9.48,1.57l6.151-9.46l42.28,1.764c0,0,1.067,5.417-5.299,12.221
					c-6.367,6.805-14.967,11.275-14.967,11.275l-16.386-3.369l-1.373,8.287L351.805,113.677z"/>
				<path fill="#FFFFFF" d="M325.439,119.789l27.041-48.573l8.503,4.028l3.59-21.674c0,0,8.604-0.539,14.76-6.069
					s6.574-12.01,10.29-14.67c3.715-2.659,7.642-6.594,14.549-4.794c6.906,1.799,7.442,6.473,4.474,12.53
					c-2.968,6.058-5.933,16.046-5.933,16.046l-22.921,19.751l-4.135,13.101l-20.26,2.538c0,0-9.035,31.806-11.491,31.238
					C338.086,121.894,325.439,119.789,325.439,119.789z"/>
				<path fill="#FFFFFF" d="M281.223,146.704c-22.623,21.637-35.378,50.284-35.378,50.284l25.045,82.089l-6.46,19.233l-9.559,2.347
					L219.2,226.064l-82.316-55.791l-99.663,32.763l-15.627-12.413l41.686-61.865l81.659-30.355l23.575,3.905
					c14.864,14.479,26.479,23.517,51.591,32.374c47.214,7.891,91.236-16.835,100.794-65.733l17.521-35.431
					c0,0,1.056-6.375,5.51-13.496c4.454-7.122,11.251-8.615,16.246-7.133c4.994,1.482,8.084,10.509,5.01,17.204
					c-3.074,6.695-50.146,92.655-50.146,92.655"/>
			</g>
			<path fill="#FFFFFF" d="M353.2,131.496c-42.484-7.038-82.629,21.697-89.667,64.181s21.697,82.629,64.181,89.667
				c42.484,7.038,82.629-21.697,89.667-64.181C424.419,178.679,395.684,138.533,353.2,131.496z M311.515,143.214
				c7.669-3.475,17.969-5.654,17.969-5.654l7.243,37.538c0,0-6.526,1.58-9.856,2.91c-7.673,3.065-8.394,4.06-8.394,4.06
				l-21.101-31.657C297.376,150.41,300.352,148.272,311.515,143.214z M311.107,276.089c0,0-3.363-1.456-13.436-8.436
				c-6.92-4.795-14.079-12.515-14.079-12.515l28.49-25.493c0,0,4.707,4.789,7.558,6.963c6.571,5.01,7.795,5.118,7.795,5.118
				L311.107,276.089z M336.649,231.409c-12.696-2.103-21.284-14.101-19.181-26.797c2.103-12.696,14.101-21.284,26.797-19.181
				c12.696,2.103,21.284,14.101,19.181,26.797C361.342,224.924,349.345,233.512,336.649,231.409z M371.289,222.856
				c0,0,1.812-6.465,2.28-10.02c1.077-8.192,0.562-9.308,0.562-9.308l37.932-2.932c0,0,0.41,3.641-0.634,15.852
				c-0.717,8.389-3.852,18.439-3.852,18.439L371.289,222.856z"/>
			<path fill="#FFFFFF" d="M207.475-20.474c-39.546,17.044-57.788,62.92-40.744,102.466s62.92,57.788,102.466,40.744
				s57.788-62.92,40.744-102.466S247.021-37.518,207.475-20.474z M178.739,11.918c4.573-7.069,12.061-14.47,12.061-14.47
				l26.385,27.665c0,0-4.637,4.857-6.719,7.775c-4.799,6.727-4.868,7.953-4.868,7.953l-34.865-15.227
				C170.735,25.615,172.083,22.208,178.739,11.918z M250.223,123.927c0,0-3.616,0.593-15.864,0.166
				c-8.414-0.294-18.61-2.918-18.61-2.918l10.188-36.848c0,0,6.548,1.484,10.122,1.772c8.236,0.663,9.324,0.092,9.324,0.092
				L250.223,123.927z M247.559,72.531c-11.818,5.094-25.528-0.358-30.622-12.176c-5.094-11.818,0.358-25.528,12.176-30.622
				s25.528,0.358,30.622,12.176C264.829,53.727,259.378,67.437,247.559,72.531z M272.079,46.61c0,0-1.97-6.419-3.498-9.662
				c-3.522-7.475-4.559-8.134-4.559-8.134l30.328-22.971c0,0,2.313,2.842,8.036,13.679c3.931,7.445,6.727,17.595,6.727,17.595
				L272.079,46.61z"/>
		</g>
	</g>
</g>
</svg>
