<svg id="Layer_1" data-name="Layer 1" xmlns="http://www.w3.org/2000/svg" viewBox="0 0 512 512"><defs><style>.cls-1{fill:#fff;}</style></defs><title>Artboard 1</title><path class="cls-1" d="M49.13,365.86c-2.35-3.18-5.36-5.19-9.47-5.19-3.94,0-7.71,3-7.71,7.12,0,10.64,25,6.2,25,27.39,0,12.65-7.87,21.61-20.77,21.61-8.71,0-15.08-5-19.43-12.31l8-7.79c1.67,4.86,6.11,9.21,11.39,9.21,5,0,8.13-4.27,8.13-9.13,0-6.53-6-8.38-11-10.3-8.13-3.35-14.07-7.46-14.07-17.26,0-10.47,7.79-18.93,18.43-18.93,5.61,0,13.4,2.76,17.25,7Z"/><path class="cls-1" d="M80,362.68v13.9h19.6V387.3H80v17.09h20.35v10.72H67.65V352h32.67v10.72Z"/><path class="cls-1" d="M125.61,401.79l-5.19,13.32h-13l24.63-64.83h9.55l24,64.83H152.42l-4.86-13.32Zm10.64-33h-.17l-7,23h15Z"/><path class="cls-1" d="M203.26,365.86c-2.35-3.18-5.36-5.19-9.47-5.19-3.94,0-7.71,3-7.71,7.12,0,10.64,25,6.2,25,27.39,0,12.65-7.87,21.61-20.77,21.61-8.71,0-15.08-5-19.43-12.31l8-7.79c1.67,4.86,6.11,9.21,11.39,9.21,5,0,8.13-4.27,8.13-9.13,0-6.53-6-8.38-11-10.3-8.13-3.35-14.07-7.46-14.07-17.26,0-10.47,7.79-18.93,18.43-18.93,5.61,0,13.4,2.76,17.26,7Z"/><path class="cls-1" d="M250,416.79c-19.27,0-31.24-14.74-31.24-33.34,0-18.76,12.4-33.17,31.24-33.17s31.24,14.41,31.24,33.17C281.25,402,269.27,416.79,250,416.79Zm0-54.36c-11.64,0-18.51,10.3-18.51,20.52,0,9.72,4.86,21.69,18.51,21.69s18.51-12,18.51-21.69C268.52,372.73,261.65,362.43,250,362.43Z"/><path class="cls-1" d="M291.47,350.28h8.88l33.25,44.14h.17V352h12.31v64.41h-8.88L304,372.23h-.17v42.89H291.47Z"/><path class="cls-1" d="M389,365.86c-2.35-3.18-5.36-5.19-9.47-5.19-3.94,0-7.71,3-7.71,7.12,0,10.64,25,6.2,25,27.39,0,12.65-7.87,21.61-20.77,21.61-8.71,0-15.08-5-19.43-12.31l8-7.79c1.67,4.86,6.11,9.21,11.39,9.21,5,0,8.13-4.27,8.13-9.13,0-6.53-6-8.38-11-10.3-8.13-3.35-14.07-7.46-14.07-17.26,0-10.47,7.79-18.93,18.43-18.93,5.61,0,13.4,2.76,17.26,7Z"/><path class="cls-1" d="M444.42,416.29c-13.56,0-22-10.38-22-23.46s8.73-23.35,22-23.35,22,10.14,22,23.35S458,416.29,444.42,416.29Zm0-38.26c-8.19,0-13,7.25-13,14.44,0,6.84,3.42,15.27,13,15.27s13-8.43,13-15.27C457.45,385.28,452.62,378,444.42,378Z"/><path class="cls-1" d="M482.27,378.21V388h12.56v7.55H482.27v19.57H473.6V370.66h22v7.55Z"/><path class="cls-1" d="M45.15,503.35c-20.18,0-32.72-15.44-32.72-34.91,0-19.65,13-34.74,32.72-34.74s32.72,15.09,32.72,34.74C77.87,487.92,65.32,503.35,45.15,503.35Zm0-56.93c-12.19,0-19.39,10.79-19.39,21.49,0,10.18,5.09,22.72,19.39,22.72s19.39-12.54,19.39-22.72C64.53,457.21,57.34,446.42,45.15,446.42Z"/><path class="cls-1" d="M88.57,435.46h16.05c12.28,0,19.83,4.83,19.83,18,0,4.74-1.67,10.18-5.79,12.81,7.81,1.4,11.32,9.3,11.32,16.58,0,13-9.12,18.77-21.14,18.77H88.57ZM101.46,463H103c6.32,0,9.39-1.84,9.39-8.69s-3.86-8.51-9.3-8.51h-1.67Zm0,28.25h2.72c6.93,0,12.9-.88,12.9-9.47s-7-8.95-13.51-8.95h-2.1Z"/><path class="cls-1" d="M172.61,450c-2.46-3.33-5.61-5.44-9.91-5.44-4.12,0-8.07,3.16-8.07,7.46,0,11.14,26.23,6.49,26.23,28.69,0,13.25-8.25,22.63-21.75,22.63-9.12,0-15.79-5.26-20.35-12.89l8.33-8.16c1.75,5.09,6.4,9.65,11.93,9.65,5.26,0,8.51-4.47,8.51-9.56,0-6.84-6.32-8.77-11.49-10.79-8.51-3.51-14.74-7.81-14.74-18.07,0-11,8.16-19.83,19.3-19.83,5.88,0,14,2.89,18.07,7.37Z"/><path class="cls-1" d="M204.89,446.69v14.56h20.53v11.23H204.89v17.89H226.2V501.6H192V435.46H226.2v11.23Z"/><path class="cls-1" d="M270.33,450c-2.46-3.33-5.61-5.44-9.91-5.44-4.12,0-8.07,3.16-8.07,7.46,0,11.14,26.23,6.49,26.23,28.69,0,13.25-8.25,22.63-21.76,22.63-9.12,0-15.79-5.26-20.35-12.89l8.33-8.16c1.75,5.09,6.4,9.65,11.93,9.65,5.26,0,8.51-4.47,8.51-9.56,0-6.84-6.32-8.77-11.49-10.79-8.51-3.51-14.74-7.81-14.74-18.07,0-11,8.16-19.83,19.3-19.83,5.88,0,14,2.89,18.07,7.37Z"/><path class="cls-1" d="M320.86,450c-2.46-3.33-5.61-5.44-9.91-5.44-4.12,0-8.07,3.16-8.07,7.46,0,11.14,26.23,6.49,26.23,28.69,0,13.25-8.25,22.63-21.76,22.63-9.12,0-15.79-5.26-20.35-12.89l8.33-8.16c1.75,5.09,6.4,9.65,11.93,9.65,5.26,0,8.51-4.47,8.51-9.56,0-6.84-6.32-8.77-11.49-10.79-8.51-3.51-14.74-7.81-14.74-18.07,0-11,8.16-19.83,19.3-19.83,5.88,0,14,2.89,18.07,7.37Z"/><path class="cls-1" d="M353.14,501.6H340.24V435.46h12.89Z"/><path class="cls-1" d="M396.47,503.35c-20.18,0-32.72-15.44-32.72-34.91,0-19.65,13-34.74,32.72-34.74s32.72,15.09,32.72,34.74C429.19,487.92,416.65,503.35,396.47,503.35Zm0-56.93c-12.19,0-19.39,10.79-19.39,21.49,0,10.18,5.09,22.72,19.39,22.72s19.39-12.54,19.39-22.72C415.86,457.21,408.67,446.42,396.47,446.42Z"/><path class="cls-1" d="M439.9,433.7h9.3L484,479.93h.17V435.46h12.89v67.46h-9.3L453,456.69h-.18V501.6H439.9Z"/><path id="Leaf" class="cls-1" d="M390.85,227.91c-3.54,3.22,1.68,11.21,1.68,11.21s-21.86,9-32,9c-4.79,0,7.85,7.85,11.77,14s17.94,25.79,17.94,25.79-31.4-7.29-40.93-7.85-24.67-.56-32.52,1.12a76.39,76.39,0,0,1-17.38,1.12s9,17.38,12.89,27.47,13.46,42.61,13.46,42.61-3.36-2.8-5-2.8-3.92,2.8-3.92,2.8-5.61-20.74-7.85-29.15-16.82-40.37-16.82-40.37,1.12,2.24-3.92,7.85-9.53,6.17-12.89,9.53-5,10.09-11.21,15.14-17.94,13.46-17.94,13.46a64.85,64.85,0,0,0-7.85-6.17,56.08,56.08,0,0,1-10.09-9.53,24.11,24.11,0,0,0-11.77,6.17c-5,5-19.62,9.53-19.62,9.53s7.29-3.92,3.92-9-17.38-6.73-24.11-3.36-21.86,20.18-26.91,17.94,10.09-27.47,15.14-32.52,21.3-20.18,19.06-26.35S142.48,261,138,261H105.48a53.9,53.9,0,0,0,14-4.49c6.73-3.36,12.33-10.09,12.33-10.09s-7.85-5-16.26-6.17S104.36,229.6,98.19,229s-35.88,5-35.88,5,15.14-12.33,29.15-21.86,40.37-16.82,40.37-16.82,2.24-3.36.56-9.53-15.14-17.38-15.14-17.38a14.81,14.81,0,0,1,10.65,0c5.61,2.24,6.73,5,14,6.17s7.29,3.92,12.89,5.61,8.41,6.73,14.58,7.85,17.92-3.36,22.41-1.12,23,15.7,28,14S203,169,198,162.32,177.82,136.6,171.65,131s-25.8-14.65-25.8-14.65,24.66.48,34.14-5.13-10.59-39.17-10.59-39.17,6.17,4.49,11.77,0-3.87-48.21-3.87-48.21,31.34,29.71,36.39,28S217,41.78,217,41.78s17.38,24.11,24.11,25.79S246.76,55.8,253.49,53a110.51,110.51,0,0,0,15.14-8.41s-5,10.65-4.49,16.82c1,11.23,5.45,31.1,9.38,38.74,2.3,4.46,8.56-5.1,8.56-5.1s-2.24,8.41-1.12,14.58a41,41,0,0,0,3.92,11.21s-1.12,19.62,3.92,21.3,9.53-9.53,12.33-14,.56-13.46,3.92-19.62S315.16,92.8,318,86.07s6.17-37.56,6.17-37.56,5.19,15.64,13.6,15.64,3.22-2.75,8.27-3.87,11.79-1.85,17.94-5c10.2-5.31,32-20.18,32-20.18s-7.29,13.46-8.41,19.62-1.12,16.26-1.68,21.86-2.78,23.75,1.14,27.11S414.39,113,414.39,113s-11.5,8.64-18.23,12-17.09,25.56-17.65,31.73-3.92,7.85-6.17,14,2.8,9.53,8.41,12.89,19.62,1.68,27.47,5.61,20.18,12.33,25.23,15.7,16.82,6.17,16.82,6.17-23.06,3.1-32,2"/></svg>